<?xml version="1.0" encoding="utf-8"?>
<!-- Generator: Adobe Illustrator 21.0.0, SVG Export Plug-In . SVG Version: 6.00 Build 0)  -->
<svg version="1.1" id="Layer_1" xmlns="http://www.w3.org/2000/svg" xmlns:xlink="http://www.w3.org/1999/xlink" x="0px" y="0px"
	 viewBox="0 0 360 360" style="enable-background:new 0 0 360 360;" xml:space="preserve">
<style type="text/css">
	.Arched_x0020_Green{fill:url(#SVGID_1_);stroke:#FFFFFF;stroke-width:0.25;stroke-miterlimit:1;}
	.st0{fill:#CCCCCB;}
</style>
<linearGradient id="SVGID_1_" gradientUnits="userSpaceOnUse" x1="0" y1="360" x2="0.7071" y2="359.2929">
	<stop  offset="0" style="stop-color:#20AC4B"/>
	<stop  offset="0.9831" style="stop-color:#19361A"/>
</linearGradient>
<g>
	<path class="st0" d="M155.3,187.5c-2.5-1.7-6.3-2.6-11.4-2.6c-2.8,0-5.2,0.1-7.2,0.3v19.1c1.3,0.2,2.5,0.2,3.5,0.3
		c1,0,2.5,0.1,4.4,0.1c4.9,0,8.5-0.9,10.8-2.6c2.3-1.7,3.5-4.2,3.5-7.3C159,191.6,157.8,189.2,155.3,187.5z"/>
	<path class="st0" d="M143.8,172c4.6,0,8.1-0.8,10.4-2.4c2.3-1.6,3.4-3.9,3.4-6.9c0-2.5-1-4.6-3.1-6.4c-2.1-1.8-5.1-2.6-9.2-2.6
		c-1.7,0-3.3,0.1-4.6,0.2c-1.3,0.2-2.7,0.3-4,0.6v17.2c1,0.2,2.1,0.2,3,0.3C140.8,171.9,142.1,172,143.8,172z"/>
	<path class="st0" d="M216.1,183.4c-1.7,0-3.4,0.4-5.1,1.1c-1.6,0.7-3,1.7-4,2.9v16.1c1.1,1.6,2.5,2.7,4,3.5
		c1.6,0.7,3.2,1.1,4.8,1.1c3.4,0,5.9-1.1,7.5-3.4c1.6-2.3,2.4-5.5,2.4-9.5c0-3.7-0.7-6.6-2.2-8.7
		C222.1,184.5,219.6,183.4,216.1,183.4z"/>
	<path class="st0" d="M179.8,71.5c-59.6,0-108,48.4-108,108c0,59.6,48.4,108,108,108c59.6,0,108-48.4,108-108
		C287.8,119.8,239.4,71.5,179.8,71.5z M177.4,206c-1.5,2.9-3.8,5.5-6.9,7.7c-3,2.2-6.9,4-11.5,5.3c-4.6,1.3-10,2-16.2,2
		c-3.6,0-7.6-0.2-12-0.5c-4.4-0.3-8.6-0.7-12.6-1.2v-80.5c1.5-0.2,3.2-0.4,5.2-0.7c1.9-0.2,4-0.4,6.1-0.6c2.1-0.1,4.2-0.3,6.2-0.4
		c2.1-0.1,3.9-0.2,5.6-0.2c6,0,11.2,0.6,15.7,1.9c4.5,1.2,8.3,2.9,11.3,4.9c3,2.1,5.3,4.4,6.8,7.1c1.5,2.7,2.2,5.4,2.2,8.3
		c0,4.3-1.2,8-3.5,11c-2.4,3-5.9,5.4-10.6,7.4c5.6,1.7,9.8,4.2,12.5,7.4c2.7,3.2,4,7.2,4,11.9C179.7,200,178.9,203.1,177.4,206z
		 M240.6,204.9c-1.2,3.1-2.8,5.9-4.8,8.3c-2,2.4-4.4,4.3-7.1,5.7c-2.7,1.4-5.6,2.1-8.7,2.1c-5.1,0-9.6-1.6-13.4-4.7v3.8h-16.2v-82.4
		H207v37.9c1.8-1.7,3.7-3,5.8-3.9c2.1-0.9,4.6-1.3,7.6-1.3c3.1,0,6.1,0.6,8.7,1.9c2.7,1.2,5,2.9,7,5.1c2,2.2,3.5,4.8,4.6,7.8
		c1.1,3,1.6,6.3,1.6,9.8C242.4,198.4,241.8,201.7,240.6,204.9z"/>
</g>
</svg>
